<?xml version="1.0" standalone="no"?>
<!DOCTYPE svg PUBLIC "-//W3C//DTD SVG 20010904//EN"
 "http://www.w3.org/TR/2001/REC-SVG-20010904/DTD/svg10.dtd">
<svg version="1.0" xmlns="http://www.w3.org/2000/svg"
 width="500.000000pt" height="500.000000pt" viewBox="0 0 500.000000 500.000000"
 preserveAspectRatio="xMidYMid meet">
<metadata>
Created by potrace 1.14, written by Peter Selinger 2001-2017
</metadata>
<g transform="translate(0.000000,500.000000) scale(0.100000,-0.100000)"
fill="#000000" stroke="none">
<path d="M2479 4745 c-4 -3 -48 -8 -100 -10 -52 -3 -110 -8 -129 -11 -19 -4
-52 -8 -73 -10 -68 -7 -192 -35 -195 -45 -2 -5 -8 -9 -13 -9 -6 0 -7 6 -3 13
6 9 4 9 -7 1 -8 -5 -21 -10 -29 -9 -8 0 -21 -5 -28 -12 -8 -7 -18 -11 -22 -8
-5 3 -17 1 -27 -4 -29 -16 -118 -46 -119 -41 -1 3 -11 -3 -22 -13 -15 -14 -21
-15 -25 -5 -4 8 -6 6 -6 -5 -1 -10 -5 -16 -10 -13 -9 6 -91 -32 -102 -47 -3
-5 -9 -9 -12 -9 -20 0 -47 -12 -47 -21 0 -6 -3 -7 -7 -4 -3 4 -13 1 -21 -5
-17 -15 -49 -34 -79 -47 -13 -6 -23 -15 -23 -21 0 -6 -4 -8 -10 -5 -5 3 -10 1
-10 -4 0 -6 -7 -11 -15 -11 -9 0 -18 -7 -21 -15 -4 -8 -10 -12 -15 -9 -5 3 -9
1 -9 -3 0 -5 -18 -19 -39 -33 -22 -13 -38 -28 -35 -32 3 -4 0 -8 -7 -8 -22 0
-227 -189 -294 -273 -5 -6 -30 -36 -53 -64 -24 -29 -41 -53 -38 -53 4 0 -3
-10 -14 -22 -12 -13 -35 -45 -53 -73 -17 -27 -35 -52 -39 -53 -5 -2 -6 -7 -3
-12 3 -5 -1 -14 -8 -22 -8 -7 -22 -31 -33 -53 -10 -22 -25 -46 -34 -53 -11
-10 -11 -12 -1 -6 9 4 6 -6 -8 -24 -12 -18 -19 -36 -16 -42 3 -5 2 -10 -4 -10
-9 0 -20 -22 -22 -45 0 -5 -6 -17 -13 -25 -8 -8 -17 -32 -20 -53 -4 -21 -11
-35 -17 -32 -5 4 -9 3 -8 -2 5 -29 -2 -63 -13 -57 -6 4 -8 3 -5 -3 4 -6 0 -29
-8 -52 -8 -23 -15 -43 -15 -46 0 -3 -2 -10 -4 -17 -9 -26 -20 -94 -20 -120 -1
-14 -4 -24 -8 -22 -5 3 -8 -5 -9 -18 0 -13 -2 -34 -4 -48 -2 -14 -6 -46 -8
-72 -3 -25 -8 -52 -12 -59 -6 -8 -4 -10 4 -4 10 6 11 3 3 -11 -5 -11 -8 -36
-7 -56 1 -21 -2 -38 -8 -38 -5 0 -5 -5 2 -13 6 -8 8 -17 4 -20 -9 -10 -9 -67
0 -67 4 0 3 -9 -3 -19 -6 -13 -7 -22 0 -26 5 -3 6 -13 3 -22 -5 -12 -3 -14 8
-8 11 7 12 6 3 -6 -8 -12 -12 -52 -5 -61 3 -4 13 -123 15 -170 0 -20 4 -34 8
-31 9 5 9 3 11 -44 1 -17 5 -35 10 -39 4 -4 7 -22 7 -41 0 -18 4 -33 9 -33 5
0 8 -12 6 -26 -1 -14 3 -28 10 -30 7 -3 12 -13 11 -22 -2 -9 8 -43 21 -77 13
-33 25 -68 26 -77 1 -10 4 -18 8 -18 7 0 20 -43 18 -56 0 -4 3 -10 8 -13 8 -6
41 -73 44 -89 1 -4 9 -18 18 -32 9 -14 26 -42 36 -63 11 -20 23 -37 27 -37 5
0 7 -3 6 -7 -2 -11 35 -73 45 -73 4 0 7 -7 7 -15 0 -8 5 -15 10 -15 6 0 10 -5
10 -11 0 -6 6 -17 12 -24 7 -8 29 -35 48 -61 19 -26 51 -64 71 -85 20 -21 34
-41 31 -44 -3 -3 3 -5 13 -5 10 0 16 -3 12 -6 -7 -7 24 -45 33 -39 3 2 15 -10
25 -26 11 -16 24 -29 28 -29 4 0 23 -15 42 -32 19 -18 48 -44 65 -58 18 -14
40 -32 50 -40 71 -58 146 -110 159 -110 6 0 11 -3 11 -7 0 -5 10 -13 23 -19
44 -22 91 -49 105 -62 7 -6 22 -12 33 -12 10 0 19 -4 19 -10 0 -5 9 -10 19
-10 11 0 27 -7 35 -16 9 -8 20 -12 26 -9 5 3 10 2 10 -3 0 -5 6 -9 13 -9 6 0
32 -9 57 -21 59 -27 160 -57 183 -54 10 1 15 -3 12 -8 -6 -9 7 -13 48 -13 9 0
17 -4 17 -9 0 -5 6 -8 13 -7 30 4 68 -2 63 -9 -3 -5 15 -8 39 -7 25 0 45 -2
45 -5 0 -7 47 -11 137 -14 24 0 43 -4 43 -7 0 -9 293 -5 308 4 7 5 12 3 12 -3
0 -7 5 -8 13 -3 13 8 24 10 88 12 29 1 38 4 33 14 -6 9 -4 9 8 -1 10 -8 19 -9
22 -3 3 5 14 8 24 6 9 -1 31 3 47 9 17 7 40 11 53 10 12 -1 22 2 22 6 0 5 8 7
18 5 9 -1 22 1 27 5 6 5 24 11 40 14 47 8 79 18 93 29 6 5 12 7 12 4 0 -3 12
0 26 8 15 7 33 11 42 8 9 -4 13 -2 9 3 -3 6 14 16 39 23 24 7 44 18 44 24 0 6
3 7 6 4 4 -3 16 -1 28 5 11 7 24 11 29 10 4 -1 7 2 7 6 0 4 16 14 35 21 19 7
35 17 35 23 0 5 7 8 15 4 8 -3 15 -2 15 3 0 4 20 17 44 29 43 22 152 97 209
144 15 13 31 23 34 23 3 0 30 23 61 52 30 29 59 50 64 47 5 -3 7 -1 6 4 -2 5
16 29 40 53 84 86 142 149 137 149 -3 0 15 26 40 58 58 72 52 64 105 147 24
39 48 73 53 76 5 3 9 9 9 12 0 18 11 47 18 47 5 0 11 14 15 30 4 17 11 30 16
30 5 0 9 5 9 10 0 6 9 29 20 52 11 22 17 45 14 49 -3 5 -1 9 3 9 9 0 48 95 48
115 0 6 4 13 8 16 4 3 9 16 10 27 1 12 4 22 8 22 4 0 6 8 4 18 -1 9 3 28 10
42 7 14 11 33 10 43 -2 9 1 17 6 17 5 0 9 13 9 29 0 16 6 32 13 34 9 4 9 6 0
6 -9 1 -10 8 -3 27 6 14 10 39 10 55 0 17 3 28 8 26 4 -3 7 24 7 59 0 35 2 64
5 64 3 0 5 21 5 48 0 26 3 56 6 67 3 11 3 32 -2 47 -4 15 -4 30 1 33 5 3 7 11
5 18 -3 7 -7 42 -8 78 -2 36 -7 71 -11 77 -4 7 -1 12 6 12 8 0 9 3 3 8 -5 4
-10 30 -10 57 0 28 -3 55 -8 61 -4 7 -9 32 -11 55 -2 24 -6 51 -9 59 -5 13
-28 97 -42 150 -2 8 -4 16 -5 18 -3 2 -4 7 -14 47 -4 17 -12 40 -17 53 -5 12
-14 34 -20 50 -6 15 -17 38 -24 52 -7 14 -14 28 -14 32 -2 11 -35 82 -41 88
-3 3 -6 10 -7 16 -1 7 -16 35 -33 63 -16 29 -30 56 -30 61 0 6 -4 10 -10 10
-5 0 -10 9 -10 21 0 11 -4 17 -10 14 -5 -3 -10 0 -10 8 0 7 -9 23 -20 35 -11
12 -20 26 -20 32 0 5 -4 10 -10 10 -5 0 -10 5 -10 10 0 6 -11 23 -24 37 -14
15 -22 31 -19 36 3 6 2 7 -4 4 -5 -4 -16 5 -23 18 -7 14 -17 25 -22 25 -4 0
-8 4 -8 10 0 5 -13 23 -30 38 -16 16 -27 32 -23 36 4 4 -1 4 -11 0 -12 -5 -17
-4 -13 3 3 5 -28 41 -69 79 -42 38 -91 84 -110 102 -19 17 -38 32 -43 32 -5 0
-19 12 -31 28 -12 15 -24 26 -26 24 -5 -3 -45 23 -73 48 -10 8 -24 16 -32 18
-8 2 -16 8 -17 13 -2 5 -8 7 -13 3 -5 -3 -9 0 -9 5 0 6 -7 11 -15 11 -8 0 -15
5 -15 10 0 6 -6 10 -14 10 -7 0 -26 10 -42 22 -15 13 -24 16 -19 8 5 -8 -7 -3
-26 11 -19 13 -36 24 -39 24 -20 2 -50 18 -50 26 0 6 -4 8 -8 5 -5 -3 -25 4
-45 14 -21 11 -40 21 -44 21 -5 1 -19 6 -33 12 -14 5 -36 12 -50 14 -13 2 -28
10 -32 16 -4 7 -8 9 -8 5 0 -4 -18 -1 -40 7 -22 8 -40 12 -40 9 0 -2 -15 2
-33 9 -17 8 -40 13 -50 11 -9 -1 -17 1 -17 6 0 5 -11 7 -25 5 -14 -1 -28 2
-31 7 -3 4 -10 6 -15 3 -5 -4 -9 -3 -9 2 0 4 -19 8 -43 7 -23 0 -44 3 -47 7
-3 4 -30 9 -60 10 -30 1 -61 7 -69 13 -11 8 -13 8 -7 -1 4 -7 3 -13 -3 -13 -5
0 -12 4 -16 9 -3 6 -18 6 -35 1 -18 -5 -28 -5 -25 0 6 10 -48 6 -64 -4 -5 -4
-11 -1 -13 5 -2 5 -6 8 -9 4z m20 -364 c9 -6 22 -6 32 -1 9 5 19 7 22 4 3 -4
34 -8 69 -10 130 -8 143 -9 149 -17 3 -4 26 -8 52 -9 26 -1 47 -5 47 -8 0 -3
14 -7 32 -8 17 -2 36 -6 42 -11 6 -4 22 -8 36 -9 14 -1 26 -6 28 -12 2 -5 8
-8 13 -5 5 4 30 -3 55 -15 26 -11 49 -18 52 -16 2 3 11 -2 19 -10 8 -8 19 -12
24 -9 5 4 9 1 9 -5 0 -7 7 -10 15 -6 9 3 15 0 15 -10 0 -9 6 -14 13 -11 15 5
174 -76 189 -98 5 -7 8 -7 8 0 0 7 3 7 8 0 4 -6 25 -22 47 -37 22 -15 52 -38
67 -50 15 -13 40 -33 55 -45 46 -35 152 -141 146 -146 -2 -3 5 -8 16 -12 12
-3 21 -10 21 -14 0 -4 9 -19 21 -32 11 -13 30 -35 42 -49 12 -14 35 -45 52
-70 16 -25 34 -48 40 -52 7 -5 7 -8 0 -8 -5 0 -2 -5 8 -11 9 -5 17 -17 17 -24
0 -8 5 -15 11 -15 5 0 7 -4 4 -10 -3 -5 -2 -10 3 -10 9 0 48 -83 40 -87 -1 -1
6 -8 16 -16 10 -8 16 -19 13 -24 -4 -6 0 -13 8 -17 8 -3 12 -12 9 -21 -4 -8
-1 -15 7 -15 7 0 10 -3 6 -6 -3 -3 3 -21 14 -40 10 -19 19 -43 19 -54 0 -11 5
-20 11 -20 6 0 9 -6 6 -12 -2 -7 0 -22 6 -33 6 -11 12 -27 12 -35 1 -8 7 -34
14 -58 7 -24 14 -55 16 -70 2 -15 6 -34 10 -43 3 -8 7 -34 9 -56 2 -22 6 -45
10 -51 3 -6 2 -14 -4 -17 -8 -5 -8 -11 0 -20 14 -17 12 -364 -2 -381 -5 -7 -8
-16 -6 -20 1 -5 -2 -31 -7 -59 -5 -27 -9 -57 -9 -65 0 -8 -6 -21 -13 -28 -7
-8 -11 -18 -8 -23 3 -5 0 -28 -6 -51 -7 -24 -12 -46 -11 -50 1 -5 -3 -8 -9 -8
-5 0 -7 -4 -4 -10 3 -5 3 -16 -2 -22 -4 -7 -8 -15 -9 -18 0 -3 -7 -18 -14 -35
-14 -33 -21 -53 -22 -72 -1 -7 -5 -13 -9 -13 -7 0 -22 -39 -20 -52 1 -5 -3 -8
-8 -8 -8 0 -24 -37 -22 -52 1 -5 -3 -8 -9 -8 -5 0 -10 -7 -10 -15 0 -8 -4 -15
-9 -15 -5 0 -12 -11 -15 -25 -4 -14 -11 -25 -17 -25 -6 0 -7 -4 -4 -10 3 -5 1
-10 -5 -10 -6 0 -8 -4 -5 -10 3 -5 -1 -10 -10 -10 -9 0 -14 -4 -10 -9 3 -5 -2
-16 -10 -24 -8 -9 -15 -20 -15 -26 0 -6 -4 -11 -10 -11 -5 0 -10 -7 -10 -16 0
-8 -4 -12 -10 -9 -5 3 -10 -1 -10 -9 0 -8 -9 -21 -20 -29 -11 -8 -18 -16 -15
-19 8 -8 -238 -253 -255 -253 -3 0 -20 -14 -38 -30 -19 -17 -35 -28 -36 -25
-1 3 -9 -2 -18 -10 -24 -23 -52 -45 -58 -46 -3 0 -23 -12 -45 -26 -60 -38
-105 -59 -105 -51 0 5 -4 3 -8 -2 -10 -16 -119 -66 -172 -80 -3 -1 -13 -5 -22
-9 -9 -4 -22 -8 -30 -10 -7 -1 -17 -4 -23 -7 -5 -3 -32 -12 -60 -18 -27 -7
-57 -15 -65 -18 -8 -4 -28 -7 -45 -8 -16 -2 -30 -4 -30 -5 0 -19 -438 -31
-550 -15 -27 4 -56 8 -62 8 -7 0 -13 3 -13 7 0 4 -10 6 -22 5 -13 -1 -29 3
-37 9 -12 9 -13 8 -6 -4 7 -12 6 -13 -6 -3 -8 6 -28 14 -44 17 -17 2 -31 5
-32 6 -2 2 -6 3 -10 4 -5 1 -15 6 -23 11 -8 5 -21 10 -30 10 -26 2 -119 36
-125 45 -3 5 -12 7 -20 3 -8 -3 -15 0 -15 6 0 6 -12 11 -26 11 -14 0 -23 4
-19 10 3 6 -3 10 -14 10 -12 0 -21 5 -21 11 0 5 -5 7 -11 4 -6 -4 -17 1 -24
11 -8 11 -15 15 -15 11 0 -5 -13 1 -29 12 -15 11 -32 17 -36 13 -5 -4 -5 -2
-2 5 4 6 -5 15 -23 22 -17 5 -30 14 -30 19 0 4 -16 14 -35 22 -19 7 -32 17
-29 22 5 7 -10 12 -28 9 -5 0 -8 7 -8 16 0 9 -3 14 -6 10 -7 -7 -26 8 -146
119 -46 43 -129 132 -128 139 0 5 -9 16 -67 79 -12 13 -19 27 -16 30 4 3 1 6
-5 6 -7 0 -12 6 -12 13 0 8 -9 22 -20 32 -11 10 -17 22 -14 26 3 5 1 9 -5 9
-6 0 -13 11 -17 25 -3 14 -10 25 -15 25 -5 0 -9 7 -9 15 0 8 -4 15 -10 15 -5
0 -10 9 -10 20 0 11 -3 20 -8 20 -4 0 -13 15 -21 33 -7 17 -21 50 -31 72 -19
42 -32 75 -35 88 -2 4 -4 9 -5 12 -1 3 -4 10 -5 15 -1 6 -3 12 -4 15 0 3 0 6
1 8 1 1 -4 12 -11 25 -12 23 -18 42 -28 97 -2 17 -8 35 -11 40 -4 6 -7 24 -7
40 0 17 -3 32 -7 35 -3 3 -7 28 -9 55 -1 28 -7 56 -12 63 -6 8 -5 12 4 12 10
0 10 3 3 8 -14 9 -16 324 -2 315 6 -3 5 4 -1 16 -7 11 -8 21 -3 21 4 0 8 15 7
33 -1 17 2 42 7 55 4 12 9 37 11 55 9 70 63 249 94 310 7 15 10 27 7 27 -4 0
0 8 9 18 8 9 16 22 17 27 6 29 34 85 43 85 6 0 7 3 4 6 -4 4 2 19 12 33 10 14
21 33 24 41 12 27 32 55 45 63 7 5 10 12 7 18 -4 5 -1 9 4 9 6 0 11 7 11 15 0
8 5 15 10 15 6 0 10 5 10 10 0 6 13 23 28 38 15 15 27 29 27 32 0 12 168 185
229 235 21 17 42 29 47 27 6 -1 8 2 5 7 -3 5 5 16 19 25 14 9 25 15 25 12 0
-2 14 9 31 25 17 16 37 29 43 29 7 0 22 9 34 20 12 12 22 18 22 14 0 -4 9 1
20 11 11 10 20 15 20 11 0 -4 7 0 16 8 8 9 20 14 25 11 5 -4 9 -1 9 5 0 6 4 9
9 5 6 -3 14 3 20 12 5 10 11 17 13 16 8 -6 48 11 48 20 0 6 3 8 6 4 4 -3 19 0
34 8 15 8 30 11 34 8 3 -4 6 -2 6 4 0 9 55 26 75 23 3 0 19 7 35 15 17 9 30
12 30 8 0 -4 5 -2 12 5 7 7 25 12 40 12 15 0 28 3 28 8 0 4 15 8 33 9 33 3 72
10 72 13 0 1 20 4 45 5 25 1 45 4 45 5 0 2 35 4 78 5 43 1 80 5 84 9 8 8 15 7
32 -3z"/>
<path d="M2325 3466 c-37 -21 -55 -41 -55 -58 0 -10 -4 -18 -8 -18 -4 0 -8
-360 -8 -800 0 -440 2 -800 6 -800 3 0 6 -10 7 -21 2 -22 35 -59 53 -59 5 0
10 -4 10 -8 0 -5 20 -9 45 -8 25 0 45 4 45 9 0 4 4 6 9 2 5 -3 18 6 29 20 11
13 22 22 25 19 3 -3 4 2 3 13 -2 10 0 23 5 28 4 6 7 39 6 73 -1 34 2 62 6 62
5 0 5 5 1 12 -10 16 -11 228 -1 228 5 0 5 5 1 12 -9 14 -8 223 1 237 3 6 2 11
-4 11 -5 0 -7 10 -4 23 2 12 4 31 3 42 -1 11 -1 27 -1 35 3 102 2 151 -3 159
-4 5 -2 12 4 16 7 4 7 12 0 26 -6 10 -7 19 -3 19 5 0 7 19 5 43 -2 23 -3 49
-3 57 0 8 1 42 0 75 0 33 0 66 0 73 0 13 0 134 0 157 0 8 1 48 2 89 0 41 -2
79 -5 85 -4 5 -2 13 4 16 8 5 8 11 1 19 -6 7 -8 16 -5 19 9 9 -35 76 -58 88
-28 15 -90 18 -113 5z"/>
<path d="M2027 3013 c-29 -15 -57 -55 -57 -83 0 -11 -6 -20 -12 -20 -9 0 -9
-3 -2 -8 14 -9 14 -132 0 -132 -6 0 -5 -4 2 -9 14 -9 13 -32 -3 -43 -7 -5 -7
-8 0 -8 12 0 14 -119 3 -136 -4 -6 -4 -14 -1 -18 12 -12 12 -40 0 -48 -9 -6
-9 -8 0 -8 8 0 12 -13 11 -35 -1 -20 -5 -32 -11 -28 -6 4 -7 1 -1 -8 12 -19
14 -88 3 -95 -5 -3 -6 -11 -2 -17 13 -20 12 -41 0 -49 -9 -6 -9 -8 0 -8 16 0
14 -70 -1 -70 -7 0 -8 -3 -1 -8 13 -9 16 -80 4 -88 -5 -3 -6 -11 -2 -17 13
-20 12 -41 0 -49 -9 -6 -9 -8 0 -8 16 0 14 -70 -1 -70 -8 0 -8 -3 -1 -8 15
-10 16 -104 1 -95 -8 5 -8 3 0 -8 6 -8 11 -29 12 -47 2 -34 30 -69 70 -91 26
-14 92 -15 92 -1 0 6 7 10 15 10 8 0 15 5 15 11 0 5 4 8 9 4 5 -3 12 4 16 15
3 11 10 20 14 20 3 0 7 26 7 59 1 32 3 65 7 73 3 8 2 20 -2 27 -5 7 -5 30 -1
51 4 22 4 37 0 35 -5 -3 -7 11 -5 30 7 77 9 135 3 140 -3 3 -2 22 2 41 4 19 4
36 0 39 -4 3 -4 21 0 40 4 19 4 37 0 40 -4 3 -4 20 0 39 4 19 5 37 2 40 -9 10
-7 96 2 96 6 0 5 5 -1 11 -6 6 -7 25 -3 49 4 22 4 37 0 35 -8 -5 -3 89 5 113
3 7 1 11 -4 8 -9 -6 -5 86 4 112 3 7 1 11 -3 8 -4 -2 -7 23 -8 56 0 40 -5 62
-15 69 -8 5 -10 9 -4 9 5 0 -6 11 -25 24 -39 26 -94 30 -133 9z"/>
<path d="M2893 2993 c-18 -19 -31 -38 -28 -43 3 -4 1 -10 -5 -12 -12 -4 -19
-678 -7 -678 5 0 5 -5 2 -11 -4 -6 -6 -101 -6 -212 2 -178 4 -227 11 -247 1
-3 2 -8 2 -11 -1 -4 14 -21 33 -38 48 -43 110 -44 156 -1 18 16 35 37 37 47
10 39 10 1118 0 1136 -8 15 -7 18 4 11 18 -11 -20 46 -45 69 -24 20 -20 19
-76 21 -38 2 -49 -3 -78 -31z"/>
<path d="M3286 2629 c3 -5 -6 -9 -19 -9 -20 0 -71 -43 -72 -60 0 -3 -3 -9 -6
-15 -4 -5 -7 -174 -6 -375 l0 -365 23 -28 c13 -15 26 -27 30 -26 4 0 10 -5 14
-11 8 -14 100 -21 100 -9 0 5 6 9 13 9 19 0 43 30 51 63 3 15 10 27 14 27 11
0 5 686 -6 707 -6 10 -9 20 -9 23 1 3 -6 16 -16 30 -9 13 -17 20 -17 15 0 -6
-4 -5 -8 2 -4 7 -26 16 -50 21 -24 6 -39 6 -36 1z"/>
<path d="M2666 2583 c-3 -3 -14 -7 -24 -8 -18 -1 -74 -35 -58 -35 5 0 0 -8
-12 -18 -18 -16 -21 -29 -20 -121 0 -56 -2 -104 -4 -106 -1 -2 -1 -56 2 -120
3 -64 3 -118 1 -120 -9 -10 1 -267 12 -287 18 -35 50 -68 59 -62 4 3 8 1 8 -4
0 -6 20 -9 45 -9 25 0 45 4 45 8 0 4 11 10 24 13 21 5 36 29 40 61 1 6 7 16
14 24 8 8 10 17 5 20 -10 7 -11 121 -1 121 5 0 4 29 -2 38 -6 9 -3 182 3 182
5 0 5 6 0 13 -10 17 -10 129 0 145 6 7 6 12 0 12 -5 0 -8 30 -7 68 2 94 -32
167 -82 175 -10 1 -24 6 -30 10 -6 3 -14 4 -18 0z"/>
<path d="M1718 2423 c-27 -7 -48 -19 -48 -25 0 -6 -8 -17 -17 -24 -16 -11 -18
-38 -18 -293 0 -155 3 -281 7 -281 4 0 8 -5 8 -11 0 -13 25 -39 38 -39 6 0 12
-4 14 -9 2 -6 18 -13 36 -16 33 -5 81 13 112 43 16 17 17 19 19 58 1 16 5 23
13 18 7 -5 8 -3 2 7 -11 18 -12 50 -2 71 5 10 4 19 -2 23 -8 5 -7 12 2 23 10
12 10 14 1 8 -7 -4 -13 -3 -13 3 0 5 5 13 10 16 6 4 7 12 3 18 -10 15 -10 38
1 55 4 7 3 19 -4 27 -8 9 -8 15 0 20 6 3 8 11 5 16 -13 19 -14 53 -3 60 9 6 9
11 -1 22 -8 11 -9 17 -1 22 6 3 7 11 3 18 -3 6 -7 30 -9 54 -1 24 -7 50 -14
58 -7 8 -9 15 -5 15 12 0 -36 34 -65 46 -19 8 -37 8 -72 -3z"/>
</g>
</svg>
